<?xml version="1.0" encoding="UTF-8"?>
<svg id="Calque_2" data-name="Calque 2" xmlns="http://www.w3.org/2000/svg" viewBox="0 0 512 512">
  <defs>
    <style>
      .cls-1 {
        fill: #fff;
      }
    </style>
  </defs>
  <g id="Calque_1-2" data-name="Calque 1">
    <g>
      <path class="cls-1" d="M512,124.5v263c0,68.76-55.74,124.5-124.5,124.5H124.5c-68.76,0-124.5-55.74-124.5-124.5V124.5C0,55.74,55.74,0,124.5,0h263c68.76,0,124.5,55.74,124.5,124.5ZM224,63h-61v386h61v-174h65v174h61V63h-61v157h-65V63Z"/>
      <polygon points="224 63 224 220 289 220 289 63 350 63 350 449 289 449 289 275 224 275 224 449 163 449 163 63 224 63"/>
    </g>
  </g>
</svg>